<mxfile host="app.diagrams.net" agent="Mozilla/5.0 (Windows NT 10.0; Win64; x64) AppleWebKit/537.36 (KHTML, like Gecko) Chrome/133.0.0.0 Safari/537.36 Edg/133.0.0.0" version="26.0.16">
  <diagram name="Página-1" id="zDNkPW191T4x59ADZeNL">
    <mxGraphModel grid="1" page="1" gridSize="10" guides="1" tooltips="1" connect="1" arrows="1" fold="1" pageScale="1" pageWidth="827" pageHeight="1169" math="0" shadow="0">
      <root>
        <mxCell id="0" />
        <mxCell id="1" parent="0" />
        <mxCell id="qzNyG73ixvhfhglO-ilW-2" value="" style="swimlane;startSize=0;" vertex="1" parent="1">
          <mxGeometry x="200" y="80" width="880" height="1000" as="geometry">
            <mxRectangle x="200" y="80" width="50" height="40" as="alternateBounds" />
          </mxGeometry>
        </mxCell>
        <mxCell id="qzNyG73ixvhfhglO-ilW-12" value="Realizar Cadastro" style="ellipse;whiteSpace=wrap;html=1;" vertex="1" parent="qzNyG73ixvhfhglO-ilW-2">
          <mxGeometry x="290" y="50" width="140" height="70" as="geometry" />
        </mxCell>
        <mxCell id="qzNyG73ixvhfhglO-ilW-4" value="Sistema de Contribuição Acadêmica" style="text;html=1;align=center;verticalAlign=middle;resizable=0;points=[];autosize=1;strokeColor=none;fillColor=none;" vertex="1" parent="qzNyG73ixvhfhglO-ilW-2">
          <mxGeometry x="330" y="8" width="220" height="30" as="geometry" />
        </mxCell>
        <mxCell id="qzNyG73ixvhfhglO-ilW-13" value="Fazer Login" style="ellipse;whiteSpace=wrap;html=1;" vertex="1" parent="qzNyG73ixvhfhglO-ilW-2">
          <mxGeometry x="73" y="100" width="140" height="70" as="geometry" />
        </mxCell>
        <mxCell id="qzNyG73ixvhfhglO-ilW-16" value="Consultar Histórico" style="ellipse;whiteSpace=wrap;html=1;" vertex="1" parent="qzNyG73ixvhfhglO-ilW-2">
          <mxGeometry x="560" y="200" width="140" height="70" as="geometry" />
        </mxCell>
        <mxCell id="qzNyG73ixvhfhglO-ilW-17" value="Fazer Upload de Arquivos" style="ellipse;whiteSpace=wrap;html=1;" vertex="1" parent="qzNyG73ixvhfhglO-ilW-2">
          <mxGeometry x="290" y="150" width="140" height="70" as="geometry" />
        </mxCell>
        <mxCell id="qzNyG73ixvhfhglO-ilW-18" value="Fazer Download de Arquivo" style="ellipse;whiteSpace=wrap;html=1;" vertex="1" parent="qzNyG73ixvhfhglO-ilW-2">
          <mxGeometry x="150" y="690" width="140" height="70" as="geometry" />
        </mxCell>
        <mxCell id="qzNyG73ixvhfhglO-ilW-19" value="Deletar Conta" style="ellipse;whiteSpace=wrap;html=1;" vertex="1" parent="qzNyG73ixvhfhglO-ilW-2">
          <mxGeometry x="50" y="910" width="140" height="70" as="geometry" />
        </mxCell>
        <mxCell id="qzNyG73ixvhfhglO-ilW-32" value="Fazer Logout" style="ellipse;whiteSpace=wrap;html=1;" vertex="1" parent="qzNyG73ixvhfhglO-ilW-2">
          <mxGeometry x="50" y="820" width="140" height="70" as="geometry" />
        </mxCell>
        <mxCell id="qzNyG73ixvhfhglO-ilW-37" value="Gerenciar Conta" style="ellipse;whiteSpace=wrap;html=1;" vertex="1" parent="qzNyG73ixvhfhglO-ilW-2">
          <mxGeometry x="73" y="240" width="140" height="70" as="geometry" />
        </mxCell>
        <mxCell id="qzNyG73ixvhfhglO-ilW-44" value="&amp;lt;&amp;lt;extend&amp;gt;&amp;gt;" style="endArrow=open;endSize=12;dashed=1;html=1;rounded=0;entryX=1;entryY=0;entryDx=0;entryDy=0;exitX=0;exitY=0.5;exitDx=0;exitDy=0;" edge="1" parent="qzNyG73ixvhfhglO-ilW-2" source="qzNyG73ixvhfhglO-ilW-17" target="qzNyG73ixvhfhglO-ilW-37">
          <mxGeometry width="160" relative="1" as="geometry">
            <mxPoint x="220" y="300" as="sourcePoint" />
            <mxPoint x="380" y="300" as="targetPoint" />
          </mxGeometry>
        </mxCell>
        <mxCell id="qzNyG73ixvhfhglO-ilW-45" value="&amp;lt;&amp;lt;extend&amp;gt;&amp;gt;" style="endArrow=open;endSize=12;dashed=1;html=1;rounded=0;entryX=0.982;entryY=0.651;entryDx=0;entryDy=0;exitX=0;exitY=0.5;exitDx=0;exitDy=0;entryPerimeter=0;" edge="1" parent="qzNyG73ixvhfhglO-ilW-2" source="qzNyG73ixvhfhglO-ilW-16" target="qzNyG73ixvhfhglO-ilW-37">
          <mxGeometry width="160" relative="1" as="geometry">
            <mxPoint x="320" y="225" as="sourcePoint" />
            <mxPoint x="223" y="285" as="targetPoint" />
          </mxGeometry>
        </mxCell>
        <mxCell id="qzNyG73ixvhfhglO-ilW-47" value="Ver Avaliação da Própria Conta" style="ellipse;whiteSpace=wrap;html=1;" vertex="1" parent="qzNyG73ixvhfhglO-ilW-2">
          <mxGeometry x="310" y="370" width="140" height="70" as="geometry" />
        </mxCell>
        <mxCell id="qzNyG73ixvhfhglO-ilW-46" value="&amp;lt;&amp;lt;extend&amp;gt;&amp;gt;" style="endArrow=open;endSize=12;dashed=1;html=1;rounded=0;entryX=1;entryY=1;entryDx=0;entryDy=0;exitX=0;exitY=0.5;exitDx=0;exitDy=0;" edge="1" parent="qzNyG73ixvhfhglO-ilW-2" source="qzNyG73ixvhfhglO-ilW-47" target="qzNyG73ixvhfhglO-ilW-37">
          <mxGeometry width="160" relative="1" as="geometry">
            <mxPoint x="320" y="325" as="sourcePoint" />
            <mxPoint x="220" y="296" as="targetPoint" />
          </mxGeometry>
        </mxCell>
        <mxCell id="qzNyG73ixvhfhglO-ilW-48" value="Realizar Busca de Arquivo" style="ellipse;whiteSpace=wrap;html=1;" vertex="1" parent="qzNyG73ixvhfhglO-ilW-2">
          <mxGeometry x="310" y="460" width="140" height="70" as="geometry" />
        </mxCell>
        <mxCell id="qzNyG73ixvhfhglO-ilW-54" value="&amp;lt;&amp;lt;include&amp;gt;&amp;gt;" style="endArrow=open;endSize=12;dashed=1;html=1;rounded=0;entryX=0.5;entryY=1;entryDx=0;entryDy=0;exitX=1;exitY=0;exitDx=0;exitDy=0;" edge="1" parent="qzNyG73ixvhfhglO-ilW-2" source="qzNyG73ixvhfhglO-ilW-18" target="qzNyG73ixvhfhglO-ilW-48">
          <mxGeometry width="160" relative="1" as="geometry">
            <mxPoint x="320" y="415" as="sourcePoint" />
            <mxPoint x="202" y="310" as="targetPoint" />
            <Array as="points" />
          </mxGeometry>
        </mxCell>
        <mxCell id="qzNyG73ixvhfhglO-ilW-55" value="Avaliar Arquivo" style="ellipse;whiteSpace=wrap;html=1;" vertex="1" parent="qzNyG73ixvhfhglO-ilW-2">
          <mxGeometry x="100" y="600" width="140" height="70" as="geometry" />
        </mxCell>
        <mxCell id="qzNyG73ixvhfhglO-ilW-58" value="&amp;lt;&amp;lt;include&amp;gt;&amp;gt;" style="endArrow=open;endSize=12;dashed=1;html=1;rounded=0;entryX=0;entryY=1;entryDx=0;entryDy=0;exitX=1;exitY=0;exitDx=0;exitDy=0;" edge="1" parent="qzNyG73ixvhfhglO-ilW-2" source="qzNyG73ixvhfhglO-ilW-55" target="qzNyG73ixvhfhglO-ilW-48">
          <mxGeometry width="160" relative="1" as="geometry">
            <mxPoint x="289" y="630" as="sourcePoint" />
            <mxPoint x="390" y="540" as="targetPoint" />
            <Array as="points" />
          </mxGeometry>
        </mxCell>
        <mxCell id="qzNyG73ixvhfhglO-ilW-59" value="Histórico de Download" style="ellipse;whiteSpace=wrap;html=1;" vertex="1" parent="qzNyG73ixvhfhglO-ilW-2">
          <mxGeometry x="460" y="320" width="140" height="70" as="geometry" />
        </mxCell>
        <mxCell id="qzNyG73ixvhfhglO-ilW-60" value="Histórico de Upload" style="ellipse;whiteSpace=wrap;html=1;" vertex="1" parent="qzNyG73ixvhfhglO-ilW-2">
          <mxGeometry x="640" y="320" width="140" height="70" as="geometry" />
        </mxCell>
        <mxCell id="qzNyG73ixvhfhglO-ilW-62" value="" style="endArrow=block;endSize=16;endFill=0;html=1;rounded=0;entryX=0;entryY=1;entryDx=0;entryDy=0;exitX=0.432;exitY=-0.021;exitDx=0;exitDy=0;exitPerimeter=0;" edge="1" parent="qzNyG73ixvhfhglO-ilW-2" source="qzNyG73ixvhfhglO-ilW-59" target="qzNyG73ixvhfhglO-ilW-16">
          <mxGeometry width="160" relative="1" as="geometry">
            <mxPoint x="470" y="410" as="sourcePoint" />
            <mxPoint x="630" y="410" as="targetPoint" />
            <Array as="points">
              <mxPoint x="550" y="290" />
            </Array>
          </mxGeometry>
        </mxCell>
        <mxCell id="qzNyG73ixvhfhglO-ilW-63" value="" style="endArrow=block;endSize=16;endFill=0;html=1;rounded=0;entryX=1;entryY=1;entryDx=0;entryDy=0;exitX=0.5;exitY=0;exitDx=0;exitDy=0;" edge="1" parent="qzNyG73ixvhfhglO-ilW-2" source="qzNyG73ixvhfhglO-ilW-60" target="qzNyG73ixvhfhglO-ilW-16">
          <mxGeometry width="160" relative="1" as="geometry">
            <mxPoint x="557" y="329" as="sourcePoint" />
            <mxPoint x="591" y="270" as="targetPoint" />
            <Array as="points" />
          </mxGeometry>
        </mxCell>
        <mxCell id="qzNyG73ixvhfhglO-ilW-68" value="Banir Conta de Usuário" style="ellipse;whiteSpace=wrap;html=1;" vertex="1" parent="qzNyG73ixvhfhglO-ilW-2">
          <mxGeometry x="510" y="435" width="140" height="70" as="geometry" />
        </mxCell>
        <mxCell id="qzNyG73ixvhfhglO-ilW-69" value="Deletar Conta de Usuário" style="ellipse;whiteSpace=wrap;html=1;" vertex="1" parent="qzNyG73ixvhfhglO-ilW-2">
          <mxGeometry x="510" y="530" width="140" height="70" as="geometry" />
        </mxCell>
        <mxCell id="qzNyG73ixvhfhglO-ilW-74" value="Notificar Novo Arquivo no Sistema" style="ellipse;whiteSpace=wrap;html=1;" vertex="1" parent="qzNyG73ixvhfhglO-ilW-2">
          <mxGeometry x="520" y="90" width="140" height="70" as="geometry" />
        </mxCell>
        <mxCell id="qzNyG73ixvhfhglO-ilW-75" value="&amp;lt;&amp;lt;include&amp;gt;&amp;gt;" style="endArrow=open;endSize=12;dashed=1;html=1;rounded=0;entryX=0.5;entryY=1;entryDx=0;entryDy=0;exitX=1;exitY=0;exitDx=0;exitDy=0;" edge="1" parent="qzNyG73ixvhfhglO-ilW-2" source="qzNyG73ixvhfhglO-ilW-17">
          <mxGeometry width="160" relative="1" as="geometry">
            <mxPoint x="420" y="220" as="sourcePoint" />
            <mxPoint x="521" y="130" as="targetPoint" />
            <Array as="points" />
          </mxGeometry>
        </mxCell>
        <mxCell id="qzNyG73ixvhfhglO-ilW-90" value="Gerenciar Sistema de Bonificação" style="ellipse;whiteSpace=wrap;html=1;" vertex="1" parent="qzNyG73ixvhfhglO-ilW-2">
          <mxGeometry x="570" y="820" width="140" height="70" as="geometry" />
        </mxCell>
        <mxCell id="qzNyG73ixvhfhglO-ilW-93" value="Fazer Logout Conta ADM" style="ellipse;whiteSpace=wrap;html=1;" vertex="1" parent="qzNyG73ixvhfhglO-ilW-2">
          <mxGeometry x="690" y="910" width="140" height="70" as="geometry" />
        </mxCell>
        <mxCell id="qzNyG73ixvhfhglO-ilW-95" value="Ver Créditos" style="ellipse;whiteSpace=wrap;html=1;" vertex="1" parent="qzNyG73ixvhfhglO-ilW-2">
          <mxGeometry x="150" y="410" width="140" height="70" as="geometry" />
        </mxCell>
        <mxCell id="qzNyG73ixvhfhglO-ilW-96" value="&amp;lt;&amp;lt;extend&amp;gt;&amp;gt;" style="endArrow=open;endSize=12;dashed=1;html=1;rounded=0;entryX=0.5;entryY=1;entryDx=0;entryDy=0;exitX=0.5;exitY=0;exitDx=0;exitDy=0;" edge="1" parent="qzNyG73ixvhfhglO-ilW-2" source="qzNyG73ixvhfhglO-ilW-95" target="qzNyG73ixvhfhglO-ilW-37">
          <mxGeometry width="160" relative="1" as="geometry">
            <mxPoint x="320" y="415" as="sourcePoint" />
            <mxPoint x="202" y="310" as="targetPoint" />
          </mxGeometry>
        </mxCell>
        <mxCell id="qzNyG73ixvhfhglO-ilW-97" value="Fazer Comentário" style="ellipse;whiteSpace=wrap;html=1;" vertex="1" parent="qzNyG73ixvhfhglO-ilW-2">
          <mxGeometry x="240" y="820" width="140" height="70" as="geometry" />
        </mxCell>
        <mxCell id="qzNyG73ixvhfhglO-ilW-98" value="&amp;lt;&amp;lt;include&amp;gt;&amp;gt;" style="endArrow=open;endSize=12;dashed=1;html=1;rounded=0;entryX=1;entryY=1;entryDx=0;entryDy=0;exitX=0.5;exitY=0;exitDx=0;exitDy=0;" edge="1" parent="qzNyG73ixvhfhglO-ilW-2" source="qzNyG73ixvhfhglO-ilW-97" target="qzNyG73ixvhfhglO-ilW-48">
          <mxGeometry width="160" relative="1" as="geometry">
            <mxPoint x="289" y="630" as="sourcePoint" />
            <mxPoint x="390" y="540" as="targetPoint" />
            <Array as="points" />
          </mxGeometry>
        </mxCell>
        <mxCell id="qzNyG73ixvhfhglO-ilW-101" value="Consultar Arquivos" style="ellipse;whiteSpace=wrap;html=1;" vertex="1" parent="qzNyG73ixvhfhglO-ilW-2">
          <mxGeometry x="520" y="690" width="140" height="70" as="geometry" />
        </mxCell>
        <mxCell id="qzNyG73ixvhfhglO-ilW-5" value="Usuário" style="shape=umlActor;verticalLabelPosition=bottom;verticalAlign=top;html=1;outlineConnect=0;" vertex="1" parent="1">
          <mxGeometry x="80" y="280" width="30" height="60" as="geometry" />
        </mxCell>
        <mxCell id="qzNyG73ixvhfhglO-ilW-9" value="Administrador" style="shape=umlActor;verticalLabelPosition=bottom;verticalAlign=top;html=1;outlineConnect=0;" vertex="1" parent="1">
          <mxGeometry x="1170" y="280" width="30" height="60" as="geometry" />
        </mxCell>
        <mxCell id="qzNyG73ixvhfhglO-ilW-78" value="" style="endArrow=none;endSize=16;endFill=0;html=1;rounded=0;entryX=1;entryY=0.5;entryDx=0;entryDy=0;exitX=0.5;exitY=0;exitDx=0;exitDy=0;exitPerimeter=0;startFill=0;" edge="1" parent="1" source="qzNyG73ixvhfhglO-ilW-9" target="qzNyG73ixvhfhglO-ilW-74">
          <mxGeometry width="160" relative="1" as="geometry">
            <mxPoint x="991" y="300" as="sourcePoint" />
            <mxPoint x="960" y="240" as="targetPoint" />
            <Array as="points" />
          </mxGeometry>
        </mxCell>
        <mxCell id="qzNyG73ixvhfhglO-ilW-79" value="" style="endArrow=none;endSize=16;endFill=0;html=1;rounded=0;exitX=1;exitY=0.5;exitDx=0;exitDy=0;startFill=0;entryX=0;entryY=0.3333333333333333;entryDx=0;entryDy=0;entryPerimeter=0;" edge="1" parent="1" source="qzNyG73ixvhfhglO-ilW-68" target="qzNyG73ixvhfhglO-ilW-9">
          <mxGeometry width="160" relative="1" as="geometry">
            <mxPoint x="1195" y="290" as="sourcePoint" />
            <mxPoint x="1160" y="320" as="targetPoint" />
            <Array as="points">
              <mxPoint x="1020" y="440" />
            </Array>
          </mxGeometry>
        </mxCell>
        <mxCell id="qzNyG73ixvhfhglO-ilW-80" value="" style="endArrow=none;endSize=16;endFill=0;html=1;rounded=0;exitX=1;exitY=0.5;exitDx=0;exitDy=0;startFill=0;entryX=0.5;entryY=0.5;entryDx=0;entryDy=0;entryPerimeter=0;" edge="1" parent="1" source="qzNyG73ixvhfhglO-ilW-69" target="qzNyG73ixvhfhglO-ilW-9">
          <mxGeometry width="160" relative="1" as="geometry">
            <mxPoint x="910" y="565" as="sourcePoint" />
            <mxPoint x="1180" y="310" as="targetPoint" />
            <Array as="points">
              <mxPoint x="1020" y="470" />
            </Array>
          </mxGeometry>
        </mxCell>
        <mxCell id="qzNyG73ixvhfhglO-ilW-82" value="" style="endArrow=none;endSize=16;endFill=0;html=1;rounded=0;entryX=0.5;entryY=0;entryDx=0;entryDy=0;exitX=0;exitY=0.5;exitDx=0;exitDy=0;startFill=0;entryPerimeter=0;" edge="1" parent="1" source="qzNyG73ixvhfhglO-ilW-12" target="qzNyG73ixvhfhglO-ilW-5">
          <mxGeometry width="160" relative="1" as="geometry">
            <mxPoint x="413" y="163" as="sourcePoint" />
            <mxPoint x="88" y="88" as="targetPoint" />
            <Array as="points">
              <mxPoint x="230" y="140" />
            </Array>
          </mxGeometry>
        </mxCell>
        <mxCell id="qzNyG73ixvhfhglO-ilW-83" value="" style="endArrow=none;endSize=16;endFill=0;html=1;rounded=0;entryX=0.5;entryY=0;entryDx=0;entryDy=0;exitX=0;exitY=0.5;exitDx=0;exitDy=0;startFill=0;entryPerimeter=0;" edge="1" parent="1" source="qzNyG73ixvhfhglO-ilW-13">
          <mxGeometry width="160" relative="1" as="geometry">
            <mxPoint x="500" y="175" as="sourcePoint" />
            <mxPoint x="105" y="290" as="targetPoint" />
            <Array as="points">
              <mxPoint x="230" y="210" />
            </Array>
          </mxGeometry>
        </mxCell>
        <mxCell id="qzNyG73ixvhfhglO-ilW-85" value="" style="endArrow=none;endSize=16;endFill=0;html=1;rounded=0;entryX=0.5;entryY=0.5;entryDx=0;entryDy=0;exitX=0;exitY=0;exitDx=0;exitDy=0;startFill=0;entryPerimeter=0;" edge="1" parent="1" source="qzNyG73ixvhfhglO-ilW-37" target="qzNyG73ixvhfhglO-ilW-5">
          <mxGeometry width="160" relative="1" as="geometry">
            <mxPoint x="283" y="225" as="sourcePoint" />
            <mxPoint x="115" y="300" as="targetPoint" />
            <Array as="points">
              <mxPoint x="220" y="300" />
            </Array>
          </mxGeometry>
        </mxCell>
        <mxCell id="qzNyG73ixvhfhglO-ilW-86" value="" style="endArrow=none;endSize=16;endFill=0;html=1;rounded=0;entryX=0.5;entryY=0.5;entryDx=0;entryDy=0;startFill=0;entryPerimeter=0;" edge="1" parent="1" source="qzNyG73ixvhfhglO-ilW-55" target="qzNyG73ixvhfhglO-ilW-5">
          <mxGeometry width="160" relative="1" as="geometry">
            <mxPoint x="293" y="235" as="sourcePoint" />
            <mxPoint x="125" y="310" as="targetPoint" />
            <Array as="points">
              <mxPoint x="210" y="460" />
            </Array>
          </mxGeometry>
        </mxCell>
        <mxCell id="qzNyG73ixvhfhglO-ilW-87" value="" style="endArrow=none;endSize=16;endFill=0;html=1;rounded=0;entryX=0.5;entryY=0.5;entryDx=0;entryDy=0;exitX=0;exitY=0.5;exitDx=0;exitDy=0;startFill=0;entryPerimeter=0;" edge="1" parent="1" source="qzNyG73ixvhfhglO-ilW-18" target="qzNyG73ixvhfhglO-ilW-5">
          <mxGeometry width="160" relative="1" as="geometry">
            <mxPoint x="303" y="245" as="sourcePoint" />
            <mxPoint x="135" y="320" as="targetPoint" />
            <Array as="points">
              <mxPoint x="260" y="770" />
              <mxPoint x="220" y="590" />
              <mxPoint x="180" y="470" />
            </Array>
          </mxGeometry>
        </mxCell>
        <mxCell id="qzNyG73ixvhfhglO-ilW-88" value="" style="endArrow=none;endSize=16;endFill=0;html=1;rounded=0;entryX=0.5;entryY=0.5;entryDx=0;entryDy=0;exitX=0;exitY=0.5;exitDx=0;exitDy=0;startFill=0;entryPerimeter=0;" edge="1" parent="1" source="qzNyG73ixvhfhglO-ilW-32" target="qzNyG73ixvhfhglO-ilW-5">
          <mxGeometry width="160" relative="1" as="geometry">
            <mxPoint x="313" y="255" as="sourcePoint" />
            <mxPoint x="145" y="330" as="targetPoint" />
            <Array as="points">
              <mxPoint x="160" y="935" />
              <mxPoint x="130" y="600" />
              <mxPoint x="120" y="460" />
            </Array>
          </mxGeometry>
        </mxCell>
        <mxCell id="qzNyG73ixvhfhglO-ilW-89" value="" style="endArrow=none;endSize=16;endFill=0;html=1;rounded=0;entryX=0.5;entryY=0.5;entryDx=0;entryDy=0;exitX=0;exitY=0.5;exitDx=0;exitDy=0;startFill=0;entryPerimeter=0;" edge="1" parent="1" source="qzNyG73ixvhfhglO-ilW-19" target="qzNyG73ixvhfhglO-ilW-5">
          <mxGeometry width="160" relative="1" as="geometry">
            <mxPoint x="323" y="265" as="sourcePoint" />
            <mxPoint x="155" y="340" as="targetPoint" />
            <Array as="points">
              <mxPoint x="110" y="1025" />
              <mxPoint x="100" y="760" />
              <mxPoint x="80" y="500" />
            </Array>
          </mxGeometry>
        </mxCell>
        <mxCell id="qzNyG73ixvhfhglO-ilW-92" value="" style="endArrow=none;endSize=16;endFill=0;html=1;rounded=0;exitX=1;exitY=0;exitDx=0;exitDy=0;startFill=0;entryX=0.5;entryY=0.5;entryDx=0;entryDy=0;entryPerimeter=0;" edge="1" parent="1" source="qzNyG73ixvhfhglO-ilW-90" target="qzNyG73ixvhfhglO-ilW-9">
          <mxGeometry width="160" relative="1" as="geometry">
            <mxPoint x="910" y="655" as="sourcePoint" />
            <mxPoint x="1195" y="320" as="targetPoint" />
            <Array as="points">
              <mxPoint x="1060" y="590" />
            </Array>
          </mxGeometry>
        </mxCell>
        <mxCell id="qzNyG73ixvhfhglO-ilW-94" value="" style="endArrow=none;endSize=16;endFill=0;html=1;rounded=0;exitX=0.5;exitY=0;exitDx=0;exitDy=0;startFill=0;entryX=0.5;entryY=0.5;entryDx=0;entryDy=0;entryPerimeter=0;" edge="1" parent="1" source="qzNyG73ixvhfhglO-ilW-93" target="qzNyG73ixvhfhglO-ilW-9">
          <mxGeometry width="160" relative="1" as="geometry">
            <mxPoint x="839" y="720" as="sourcePoint" />
            <mxPoint x="1195" y="320" as="targetPoint" />
            <Array as="points">
              <mxPoint x="1100" y="630" />
            </Array>
          </mxGeometry>
        </mxCell>
        <mxCell id="qzNyG73ixvhfhglO-ilW-99" value="" style="endArrow=none;endSize=16;endFill=0;html=1;rounded=0;entryX=0.5;entryY=0.5;entryDx=0;entryDy=0;exitX=0;exitY=0.5;exitDx=0;exitDy=0;startFill=0;entryPerimeter=0;" edge="1" parent="1" source="qzNyG73ixvhfhglO-ilW-97" target="qzNyG73ixvhfhglO-ilW-5">
          <mxGeometry width="160" relative="1" as="geometry">
            <mxPoint x="283" y="225" as="sourcePoint" />
            <mxPoint x="115" y="300" as="targetPoint" />
            <Array as="points">
              <mxPoint x="230" y="830" />
              <mxPoint x="140" y="420" />
            </Array>
          </mxGeometry>
        </mxCell>
        <mxCell id="qzNyG73ixvhfhglO-ilW-100" value="" style="endArrow=none;endSize=16;endFill=0;html=1;rounded=0;entryX=0.5;entryY=0.5;entryDx=0;entryDy=0;startFill=0;entryPerimeter=0;exitX=0;exitY=0.5;exitDx=0;exitDy=0;" edge="1" parent="1" source="qzNyG73ixvhfhglO-ilW-48">
          <mxGeometry width="160" relative="1" as="geometry">
            <mxPoint x="359" y="692" as="sourcePoint" />
            <mxPoint x="105" y="320" as="targetPoint" />
            <Array as="points">
              <mxPoint x="350" y="600" />
              <mxPoint x="250" y="460" />
            </Array>
          </mxGeometry>
        </mxCell>
        <mxCell id="qzNyG73ixvhfhglO-ilW-102" value="" style="endArrow=none;endSize=16;endFill=0;html=1;rounded=0;exitX=1;exitY=0;exitDx=0;exitDy=0;startFill=0;" edge="1" parent="1" source="qzNyG73ixvhfhglO-ilW-101">
          <mxGeometry width="160" relative="1" as="geometry">
            <mxPoint x="860" y="655" as="sourcePoint" />
            <mxPoint x="1185" y="310" as="targetPoint" />
            <Array as="points">
              <mxPoint x="1060" y="500" />
            </Array>
          </mxGeometry>
        </mxCell>
      </root>
    </mxGraphModel>
  </diagram>
</mxfile>
